<svg width="140" height="50" viewBox="0 0 140 50" fill="none" xmlns="http://www.w3.org/2000/svg">
<rect width="140" height="50" rx="4" fill="black"/>
<path d="M30.7973 25.5804C30.819 23.8994 31.7217 22.3088 33.1539 21.4283C32.2504 20.138 30.7371 19.3199 29.1627 19.2706C27.4835 19.0944 25.8555 20.2754 24.9998 20.2754C24.1275 20.2754 22.81 19.2881 21.3913 19.3173C19.5421 19.3771 17.8181 20.4284 16.9184 22.0452C14.9844 25.3936 16.427 30.3146 18.2796 33.0213C19.2065 34.3466 20.2898 35.8271 21.7072 35.7746C23.0943 35.717 23.6123 34.8901 25.2866 34.8901C26.9454 34.8901 27.4314 35.7746 28.8776 35.7412C30.366 35.717 31.3038 34.4099 32.1981 33.072C32.8641 32.1277 33.3766 31.084 33.7166 29.9795C31.9674 29.2397 30.7994 27.4795 30.7973 25.5804Z" fill="white"/>
<path d="M28.0656 17.4906C28.8772 16.5164 29.277 15.2642 29.1802 14C27.9403 14.1302 26.7951 14.7228 25.9726 15.6596C25.1683 16.5749 24.7497 17.8051 24.8289 19.021C26.0692 19.0338 27.2885 18.4573 28.0656 17.4906Z" fill="white"/>
<path d="M41.87 21H44.24C46.46 21 48.04 19.57 48.04 17.56C48.04 15.55 46.46 14.13 44.24 14.13H41.87V21ZM42.88 20.08V15.05H44.3C45.89 15.05 47 16.09 47 17.56C47 19.04 45.89 20.08 44.3 20.08H42.88ZM51.7872 21.12C53.2572 21.12 54.4972 19.88 54.4972 18.41C54.4972 16.94 53.2572 15.71 51.7872 15.71C50.3072 15.71 49.0572 16.94 49.0572 18.41C49.0572 19.88 50.3072 21.12 51.7872 21.12ZM51.7872 20.26C50.8372 20.26 50.0472 19.42 50.0472 18.41C50.0472 17.41 50.8372 16.57 51.7872 16.57C52.7172 16.57 53.5072 17.41 53.5072 18.41C53.5072 19.42 52.7172 20.26 51.7872 20.26ZM56.7507 21H57.6607L58.9107 17.16L60.1507 21H61.0607L62.8007 15.83H61.7907L60.6107 19.68L59.3307 15.83H58.4907L57.2107 19.68L56.0207 15.83H55.0107L56.7507 21ZM66.4301 15.71C65.7301 15.71 65.1001 16.07 64.7901 16.58V15.83H63.8001V21H64.7901V17.65C64.8701 17.04 65.4901 16.57 66.2101 16.57C66.9101 16.57 67.4001 17.11 67.4001 17.88V21H68.3701V17.71C68.3701 16.54 67.5701 15.71 66.4301 15.71ZM69.7864 21H70.7664V14.01H69.7864V21ZM74.6583 21.12C76.1283 21.12 77.3683 19.88 77.3683 18.41C77.3683 16.94 76.1283 15.71 74.6583 15.71C73.1783 15.71 71.9283 16.94 71.9283 18.41C71.9283 19.88 73.1783 21.12 74.6583 21.12ZM74.6583 20.26C73.7083 20.26 72.9183 19.42 72.9183 18.41C72.9183 17.41 73.7083 16.57 74.6583 16.57C75.5883 16.57 76.3783 17.41 76.3783 18.41C76.3783 19.42 75.5883 20.26 74.6583 20.26ZM80.6966 15.71C80.1266 15.71 79.4766 15.86 78.7366 16.23L79.0966 16.96C79.5466 16.73 80.0466 16.53 80.5566 16.53C81.5866 16.53 81.8866 17.22 81.8866 17.87V18.03C81.3866 17.86 80.8366 17.75 80.3266 17.75C79.1866 17.75 78.2566 18.44 78.2566 19.47C78.2566 20.48 79.0666 21.12 80.1666 21.12C80.7966 21.12 81.5066 20.83 81.8866 20.29V21H82.8566V17.87C82.8566 16.59 82.0866 15.71 80.6966 15.71ZM80.3566 20.34C79.7066 20.34 79.2066 20 79.2066 19.44C79.2066 18.88 79.7866 18.49 80.4766 18.49C80.9866 18.49 81.4666 18.56 81.8866 18.69V19.38C81.7166 20.02 80.9966 20.34 80.3566 20.34ZM88.2684 14.01V16.72C87.8684 16.09 87.2284 15.71 86.4284 15.71C85.0684 15.71 84.0484 16.83 84.0484 18.41C84.0484 20 85.0684 21.12 86.4284 21.12C87.2284 21.12 87.8684 20.74 88.2684 20.1V21H89.2484V14.01H88.2684ZM86.6684 20.26C85.7184 20.26 85.0484 19.49 85.0484 18.41C85.0484 17.33 85.7184 16.57 86.6684 16.57C87.5984 16.57 88.2684 17.33 88.2684 18.41C88.2684 19.49 87.5984 20.26 86.6684 20.26ZM96.045 21.12C97.515 21.12 98.755 19.88 98.755 18.41C98.755 16.94 97.515 15.71 96.045 15.71C94.565 15.71 93.315 16.94 93.315 18.41C93.315 19.88 94.565 21.12 96.045 21.12ZM96.045 20.26C95.095 20.26 94.305 19.42 94.305 18.41C94.305 17.41 95.095 16.57 96.045 16.57C96.975 16.57 97.765 17.41 97.765 18.41C97.765 19.42 96.975 20.26 96.045 20.26ZM102.543 15.71C101.843 15.71 101.213 16.07 100.903 16.58V15.83H99.9134V21H100.903V17.65C100.983 17.04 101.603 16.57 102.323 16.57C103.023 16.57 103.513 17.11 103.513 17.88V21H104.483V17.71C104.483 16.54 103.683 15.71 102.543 15.71ZM111.181 20.07C111.071 20.18 110.871 20.26 110.651 20.26C110.361 20.26 110.121 20 110.121 19.64V16.67H111.341V15.83H110.121V14.41H109.151V15.83H108.371V16.67H109.151V19.71C109.151 20.54 109.711 21.12 110.511 21.12C110.881 21.12 111.261 20.98 111.541 20.75L111.181 20.07ZM115.18 15.71C114.47 15.71 113.84 16.08 113.53 16.6V14.01H112.55V21H113.53V17.79C113.53 17.12 114.18 16.57 114.96 16.57C115.66 16.57 116.15 17.11 116.15 17.88V21H117.12V17.71C117.12 16.54 116.32 15.71 115.18 15.71ZM120.906 20.24C120.016 20.24 119.386 19.62 119.256 18.76H123.326C123.326 16.91 122.416 15.71 120.836 15.71C119.406 15.71 118.256 16.85 118.256 18.4C118.256 19.99 119.476 21.12 120.916 21.12C121.646 21.12 122.546 20.81 123.006 20.32L122.386 19.68C122.076 20 121.446 20.24 120.906 20.24ZM120.876 16.59C121.766 16.59 122.256 17.17 122.366 17.97H119.266C119.426 17.13 120.076 16.59 120.876 16.59Z" fill="white"/>
<path d="M49.008 34H51.332L47.412 24.382H45.102L41.182 34H43.492L44.108 32.488H48.392L49.008 34ZM44.822 30.738L46.25 27.224L47.678 30.738H44.822ZM56.8757 26.594C55.8677 26.594 55.0277 27.028 54.4537 27.77V26.762H52.4097V36.408H54.4537V32.978C55.0277 33.734 55.8677 34.168 56.8757 34.168C58.8077 34.168 60.2077 32.6 60.2077 30.374C60.2077 28.162 58.8077 26.594 56.8757 26.594ZM56.2877 32.446C55.2937 32.446 54.5657 31.718 54.4537 30.654V30.094C54.5657 29.044 55.2937 28.316 56.2877 28.316C57.4217 28.316 58.2197 29.17 58.2197 30.374C58.2197 31.592 57.4217 32.446 56.2877 32.446ZM66.1179 26.594C65.1099 26.594 64.2699 27.028 63.6959 27.77V26.762H61.6519V36.408H63.6959V32.978C64.2699 33.734 65.1099 34.168 66.1179 34.168C68.0499 34.168 69.4499 32.6 69.4499 30.374C69.4499 28.162 68.0499 26.594 66.1179 26.594ZM65.5299 32.446C64.5359 32.446 63.8079 31.718 63.6959 30.654V30.094C63.8079 29.044 64.5359 28.316 65.5299 28.316C66.6639 28.316 67.4619 29.17 67.4619 30.374C67.4619 31.592 66.6639 32.446 65.5299 32.446ZM78.5002 34.168C80.8522 34.168 82.2382 32.95 82.2382 31.116C82.2382 29.338 80.8662 28.722 78.7942 28.26C77.3102 27.924 76.7362 27.7 76.7362 27C76.7362 26.426 77.2682 25.964 78.1502 25.964C79.0742 25.964 80.0402 26.342 80.8942 27.028L81.9722 25.544C80.9922 24.704 79.7742 24.214 78.2062 24.214C76.1062 24.214 74.6502 25.432 74.6502 27.21C74.6502 29.072 76.0922 29.646 78.1222 30.108C79.5922 30.444 80.1522 30.654 80.1522 31.34C80.1522 31.942 79.6202 32.418 78.5842 32.418C77.3662 32.418 76.3302 31.942 75.4202 31.158L74.2302 32.572C75.3502 33.608 76.8342 34.168 78.5002 34.168ZM87.4716 32.208C87.3316 32.348 87.0516 32.446 86.7716 32.446C86.3936 32.446 86.0856 32.11 86.0856 31.634V28.414H87.6536V26.762H86.0856V24.774H84.1256V26.762H83.1316V28.414H84.1256V31.956C84.1256 33.258 85.0216 34.168 86.2956 34.168C86.8836 34.168 87.5416 33.916 87.9616 33.538L87.4716 32.208ZM92.7977 34.168C94.9397 34.168 96.7317 32.432 96.7317 30.374C96.7317 28.316 94.9397 26.594 92.7977 26.594C90.6417 26.594 88.8357 28.316 88.8357 30.374C88.8357 32.432 90.6417 34.168 92.7977 34.168ZM92.7977 32.446C91.7057 32.446 90.7957 31.494 90.7957 30.374C90.7957 29.254 91.7057 28.316 92.7977 28.316C93.8757 28.316 94.7857 29.254 94.7857 30.374C94.7857 31.494 93.8757 32.446 92.7977 32.446ZM100.159 28.106V26.762H98.1148V34H100.159V30.542C100.159 29.184 101.125 28.316 102.637 28.316V26.594C101.531 26.594 100.635 27.168 100.159 28.106ZM107.232 32.362C106.378 32.362 105.748 31.83 105.51 31.046H110.732C110.732 28.316 109.402 26.594 107.134 26.594C105.02 26.594 103.41 28.176 103.41 30.36C103.41 32.586 105.09 34.168 107.246 34.168C108.31 34.168 109.556 33.72 110.2 33.048L108.898 31.718C108.506 32.096 107.806 32.362 107.232 32.362ZM107.218 28.4C108.044 28.4 108.576 28.862 108.772 29.576H105.538C105.804 28.848 106.448 28.4 107.218 28.4Z" fill="white"/>
</svg>
