<svg width="68" height="106" viewBox="0 0 68 106" fill="none" xmlns="http://www.w3.org/2000/svg">
<g clip-path="url(#clip0_727_2204)">
<path d="M46.3197 19.9796C44.4487 12.8555 37.9275 2.7235 16.3318 0.0112308C15.4863 -0.0955082 14.8044 0.684507 14.9981 1.51379C19.4792 20.6119 30.3452 26.6275 38.432 27.8455C39.0621 27.9413 41.184 28.3107 41.6313 28.464C51.2618 31.7182 58.2194 40.8622 58.2194 51.6099C58.2194 57.1631 56.193 59.4293 54.2101 60.9099C51.1991 63.1624 46.5788 64.5856 41.2304 66.2332C38.3338 67.1254 35.3391 68.0477 32.2162 69.2164C26.7396 71.2636 21.402 70.771 17.1827 67.8288C12.4016 64.4953 9.54596 58.433 9.54596 51.6072C9.54596 40.1752 17.4146 30.555 28.0024 27.9084C28.1933 27.8592 28.2369 27.6074 28.0678 27.5034C25.6459 26.0446 22.9839 23.8907 20.4829 20.7213C20.3656 20.5735 20.1638 20.5215 19.9947 20.5982C8.2177 25.9324 0 37.8242 0 51.6072C0 61.5668 4.38841 70.5712 11.7361 75.6946C15.8954 78.593 20.6411 80.0627 25.6241 80.0627C28.8642 80.0627 32.2026 79.4414 35.5491 78.1907C38.4075 77.1206 41.2685 76.242 44.0341 75.3881C49.9745 73.5571 55.5847 71.8301 59.9186 68.5869C65.1989 64.6348 67.7681 59.0817 67.7681 51.6072C67.7681 37.4246 59.0704 25.2454 46.7479 20.1521C46.6034 20.0946 46.4615 20.0344 46.3197 19.9796Z" fill="white"/>
<path d="M26.5241 100.677C26.5241 101.435 26.3741 102.16 26.0714 102.847C25.7686 103.534 25.3268 104.133 24.7458 104.648C23.8049 105.488 22.6812 105.929 21.372 105.97L21.2193 106H18.2437V105.94L17.0791 105.97H16.9863L16.9263 106C15.5981 106 14.4226 105.548 13.3998 104.645C12.9607 104.235 12.6034 103.791 12.3306 103.312C11.957 102.658 12.4534 101.845 13.2034 101.845C13.5525 101.845 13.8798 102.026 14.0516 102.33C14.2808 102.735 14.5999 103.088 15.009 103.386C15.5708 103.797 16.209 104.002 16.9263 104.002H21.2193C21.6693 104.002 22.0921 103.914 22.493 103.739C22.8912 103.564 23.243 103.323 23.5512 103.017C23.8567 102.71 24.0967 102.354 24.2713 101.955C24.4458 101.555 24.5331 101.128 24.5331 100.677C24.5331 100.225 24.4458 99.8009 24.2713 99.3986C24.0967 98.999 23.8567 98.6487 23.5512 98.3531C23.2458 98.0548 22.8912 97.8194 22.493 97.6443C22.0948 97.4691 21.6693 97.3815 21.2193 97.3815H16.9263C16.4354 97.3815 15.9745 97.3213 15.5463 97.1981C15.1372 97.0941 14.7526 96.9409 14.3953 96.7356C14.038 96.5303 13.7053 96.295 13.3998 96.0267C12.827 95.5149 12.3879 94.9128 12.0825 94.2259C11.777 93.5389 11.6215 92.8164 11.6215 92.0555C11.6215 91.2974 11.7743 90.5749 12.0825 89.8852C12.3879 89.1982 12.827 88.5988 13.3998 88.0843C14.4008 87.203 15.5763 86.7624 16.9263 86.7624H16.9863H17.0791L18.2437 86.7925V86.7624H21.2193H21.372C22.6812 86.8034 23.8049 87.244 24.7458 88.0843C25.1986 88.5003 25.5668 88.9519 25.8477 89.4445C26.2214 90.0986 25.7277 90.9142 24.975 90.9142H24.9504C24.5986 90.9142 24.2686 90.7309 24.0967 90.4243C23.8649 90.0083 23.5458 89.6525 23.1367 89.3597C22.5748 88.9601 21.9366 88.7603 21.2193 88.7603H16.9263C16.4763 88.7603 16.0536 88.8479 15.6526 89.023C15.2544 89.1982 14.9026 89.4336 14.5944 89.7319C14.2889 90.0302 14.0462 90.3778 13.8744 90.7774C13.6998 91.177 13.6125 91.6039 13.6125 92.0555C13.6125 92.5071 13.6998 92.9313 13.8744 93.3336C14.0489 93.7332 14.2889 94.0863 14.5944 94.3956C14.8999 94.7048 15.2544 94.9457 15.6526 95.1181C16.0508 95.2905 16.4763 95.3808 16.9263 95.3808H21.2193C21.7102 95.3808 22.1712 95.4411 22.5994 95.5642H22.6921C23.0794 95.6874 23.4394 95.8406 23.764 96.0267C23.9467 96.1307 24.1158 96.2375 24.2713 96.3497C24.4104 96.4537 24.5549 96.5604 24.7022 96.6699C24.7322 96.6918 24.7595 96.7137 24.7868 96.7383C25.3486 97.2419 25.7768 97.8304 26.0714 98.5009C26.3741 99.1933 26.5241 99.9159 26.5241 100.677Z" fill="white"/>
<path d="M33.8527 87.7613V105.004C33.8527 105.554 33.4081 105.997 32.8627 105.997H32.8517C32.3035 105.997 31.8617 105.551 31.8617 105.004V87.7613C31.8617 87.2112 32.3063 86.7678 32.8517 86.7678H32.8627C33.4081 86.7678 33.8527 87.2112 33.8527 87.7613Z" fill="white"/>
<path d="M56.1439 87.7914V105.004C56.1439 105.554 55.6993 105.997 55.1538 105.997H54.1256C53.812 105.997 53.5201 105.849 53.3319 105.598L42.995 91.7161C42.425 90.9498 41.2113 91.3549 41.2113 92.3128V105.004C41.2113 105.554 40.7667 105.997 40.2212 105.997H40.2103C39.6621 105.997 39.2203 105.551 39.2203 105.004V87.7914C39.2203 87.2413 39.6648 86.7979 40.2103 86.7979H41.3286C41.6422 86.7979 41.9341 86.9457 42.1222 87.1975L52.3664 100.956C52.9365 101.722 54.1502 101.317 54.1502 100.359V87.7914C54.1502 87.2413 54.5947 86.7979 55.1402 86.7979H55.1511C55.7021 86.7979 56.1439 87.2441 56.1439 87.7914Z" fill="white"/>
</g>
<defs>
<clipPath id="clip0_727_2204">
<rect width="67.7654" height="106" fill="white"/>
</clipPath>
</defs>
</svg>
