<svg width="403" height="783" viewBox="0 0 403 783" fill="none" xmlns="http://www.w3.org/2000/svg">
<g filter="url(#filter0_d_932_4120)">
<g filter="url(#filter1_i_932_4120)">
<path fill-rule="evenodd" clip-rule="evenodd" d="M66.0708 4C33.9992 4 8 29.9992 8 62.0708V712.728C8 744.8 33.9992 770.799 66.0708 770.799H332.669C364.741 770.799 390.739 744.8 390.739 712.728V246.842H392.059C393.518 246.842 394.699 245.66 394.699 244.202V203.288C394.699 201.83 393.518 200.649 392.059 200.649H390.739V187.451H392.059C393.518 187.451 394.699 186.27 394.699 184.811V143.898C394.699 142.439 393.518 141.258 392.059 141.258H390.739V62.0708C390.739 29.9992 364.741 4 332.669 4H66.0708Z" fill="#EEEEEE"/>
</g>
<g filter="url(#filter2_i_932_4120)">
<path fill-rule="evenodd" clip-rule="evenodd" d="M129.422 35.6752C133.066 35.6752 136.021 32.7207 136.021 29.0763C136.021 25.4318 133.066 22.4773 129.422 22.4773C125.777 22.4773 122.823 25.4318 122.823 29.0763C122.823 32.7207 125.777 35.6752 129.422 35.6752ZM149.219 22.4773C145.575 22.4773 142.62 25.4318 142.62 29.0763C142.62 32.7207 145.575 35.6752 149.219 35.6752H268C271.644 35.6752 274.599 32.7207 274.599 29.0763C274.599 25.4318 271.644 22.4773 268 22.4773H149.219Z" fill="black" fill-opacity="0.02"/>
</g>
<mask id="mask0_932_4120" style="mask-type:alpha" maskUnits="userSpaceOnUse" x="31" y="31" width="336" height="721">
<path fill-rule="evenodd" clip-rule="evenodd" d="M106.792 31.7159H70.0309C48.8927 31.7159 31.757 48.8518 31.757 69.9899L31.757 712.728C31.757 733.866 48.8927 751.002 70.0309 751.002H328.71C349.848 751.002 366.984 733.866 366.984 712.728L366.984 69.9899C366.984 48.8517 349.848 31.7159 328.71 31.7159L291.949 31.7159C289.231 39.405 281.898 44.9139 273.279 44.9139L125.462 44.9139C116.842 44.9139 109.509 39.405 106.792 31.7159Z" fill="#118BD6"/>
<path fill-rule="evenodd" clip-rule="evenodd" d="M106.792 31.7159H70.0309C48.8927 31.7159 31.757 48.8518 31.757 69.9899L31.757 712.728C31.757 733.866 48.8927 751.002 70.0309 751.002H328.71C349.848 751.002 366.984 733.866 366.984 712.728L366.984 69.9899C366.984 48.8517 349.848 31.7159 328.71 31.7159L291.949 31.7159C289.231 39.405 281.898 44.9139 273.279 44.9139L125.462 44.9139C116.842 44.9139 109.509 39.405 106.792 31.7159Z" fill="url(#paint0_linear_932_4120)" fill-opacity="0.07"/>
</mask>
<g mask="url(#mask0_932_4120)">
<rect x="31.9943" y="30.994" width="334.421" height="719.83" fill="#F6F6F6"/>
<rect x="32" y="29" width="334.26" height="723.423" fill="#F6F6F6"/>
<g clip-path="url(#clip0_932_4120)">
<path d="M179.341 78.2218C178.742 75.9427 176.674 72.7081 169.862 71.7975C169.501 71.7502 169.204 72.0836 169.291 72.4394C170.76 78.4656 174.219 80.374 176.8 80.7646C177.003 80.7945 177.686 80.9139 177.832 80.9637C180.937 82.0162 183.179 84.9671 183.179 88.4405C183.179 90.2344 182.526 90.9659 181.887 91.4436C180.917 92.1701 179.428 92.6304 177.703 93.1629C176.77 93.4515 175.803 93.7501 174.798 94.1258C173.034 94.7876 171.312 94.6284 169.951 93.6779C168.41 92.6006 167.489 90.6424 167.489 88.438C167.489 84.7456 170.026 81.638 173.44 80.7821C173.502 80.7671 173.517 80.685 173.46 80.6527C172.678 80.1824 171.822 79.4857 171.015 78.4631C170.978 78.4159 170.911 78.3984 170.857 78.4233C167.059 80.1451 164.411 83.9867 164.411 88.438C164.411 91.6551 165.827 94.5637 168.195 96.2183C169.536 97.1538 171.065 97.629 172.671 97.629C173.715 97.629 174.791 97.4275 175.87 97.0244C176.79 96.6786 177.713 96.3949 178.604 96.1188C180.519 95.5266 182.328 94.9693 183.723 93.9218C185.425 92.6454 186.252 90.8514 186.252 88.438C186.252 83.8574 183.448 79.9237 179.477 78.279C179.433 78.2591 179.386 78.2417 179.341 78.2218Z" fill="url(#paint1_linear_932_4120)"/>
<path d="M206.213 89.3222C206.213 90.0115 206.077 90.6708 205.802 91.2953C205.528 91.9198 205.127 92.4647 204.6 92.9325C203.746 93.6963 202.727 94.0969 201.539 94.1343L201.401 94.1616H198.701V94.1069L197.645 94.1343H197.56L197.506 94.1616C196.301 94.1616 195.235 93.7511 194.307 92.93C193.908 92.5568 193.584 92.1537 193.337 91.7183C192.998 91.1236 193.448 90.3847 194.129 90.3847C194.445 90.3847 194.742 90.5489 194.898 90.8251C195.106 91.1933 195.396 91.5143 195.767 91.7855C196.276 92.1587 196.855 92.3453 197.506 92.3453H201.401C201.809 92.3453 202.192 92.2657 202.556 92.1064C202.917 91.9472 203.236 91.7282 203.516 91.4496C203.793 91.1709 204.011 90.8475 204.169 90.4842C204.328 90.1209 204.407 89.7328 204.407 89.3222C204.407 88.9117 204.328 88.5261 204.169 88.1603C204.011 87.797 203.793 87.4786 203.516 87.2098C203.239 86.9386 202.917 86.7247 202.556 86.5654C202.195 86.4062 201.809 86.3266 201.401 86.3266H197.506C197.061 86.3266 196.643 86.2718 196.254 86.1599C195.883 86.0653 195.534 85.926 195.21 85.7394C194.886 85.5528 194.584 85.3388 194.307 85.0949C193.787 84.6297 193.389 84.0823 193.112 83.4578C192.835 82.8333 192.694 82.1764 192.694 81.4847C192.694 80.7955 192.832 80.1386 193.112 79.5116C193.389 78.8871 193.787 78.3422 194.307 77.8745C195.215 77.0733 196.281 76.6727 197.506 76.6727H197.56H197.645L198.701 76.7001V76.6727H201.401H201.539C202.727 76.71 203.746 77.1106 204.6 77.8745C205.01 78.2526 205.345 78.6632 205.599 79.111C205.938 79.7057 205.491 80.4472 204.808 80.4472H204.785C204.466 80.4472 204.167 80.2805 204.011 80.0018C203.801 79.6236 203.511 79.3001 203.14 79.0339C202.63 78.6707 202.051 78.489 201.401 78.489H197.506C197.098 78.489 196.714 78.5686 196.351 78.7279C195.989 78.8871 195.67 79.1011 195.391 79.3723C195.113 79.6435 194.893 79.9595 194.737 80.3228C194.579 80.686 194.5 81.0742 194.5 81.4847C194.5 81.8952 194.579 82.2809 194.737 82.6466C194.896 83.0099 195.113 83.3309 195.391 83.612C195.668 83.8932 195.989 84.1121 196.351 84.2689C196.712 84.4256 197.098 84.5078 197.506 84.5078H201.401C201.846 84.5078 202.264 84.5625 202.653 84.6745H202.737C203.088 84.7864 203.415 84.9258 203.709 85.0949C203.875 85.1895 204.028 85.2865 204.169 85.3885C204.295 85.4831 204.427 85.5801 204.56 85.6797C204.587 85.6996 204.612 85.7195 204.637 85.7419C205.147 86.1997 205.535 86.7346 205.802 87.3442C206.074 87.9737 206.213 88.6306 206.213 89.3222Z" fill="#282828"/>
<path d="M212.859 77.5803V93.2554C212.859 93.7555 212.455 94.1586 211.961 94.1586H211.951C211.453 94.1586 211.052 93.753 211.052 93.2554V77.5803C211.052 77.0802 211.456 76.6772 211.951 76.6772H211.961C212.458 76.6772 212.859 77.0827 212.859 77.5803Z" fill="#282828"/>
<path d="M233.083 77.6081V93.2559C233.083 93.756 232.68 94.159 232.185 94.159H231.252C230.968 94.159 230.703 94.0247 230.532 93.7958L221.155 81.1761C220.638 80.4794 219.537 80.8477 219.537 81.7185V93.2559C219.537 93.756 219.133 94.159 218.639 94.159H218.629C218.131 94.159 217.731 93.7535 217.731 93.2559V77.6081C217.731 77.108 218.134 76.705 218.629 76.705H219.643C219.928 76.705 220.192 76.8393 220.363 77.0682L229.657 89.5759C230.174 90.2726 231.275 89.9044 231.275 89.0335V77.6081C231.275 77.108 231.678 76.705 232.173 76.705H232.183C232.68 76.705 233.083 77.1105 233.083 77.6081Z" fill="#282828"/>
</g>
<g clip-path="url(#clip1_932_4120)">
<path d="M337.33 89.555C337.497 89.0822 337.806 88.6728 338.215 88.3833C338.624 88.0937 339.113 87.9382 339.615 87.9382C340.116 87.9382 340.605 88.0937 341.014 88.3833C341.423 88.6728 341.733 89.0822 341.9 89.555H350.111V91.1698H341.9C341.733 91.6425 341.423 92.0519 341.014 92.3415C340.605 92.631 340.116 92.7865 339.615 92.7865C339.113 92.7865 338.624 92.631 338.215 92.3415C337.806 92.0519 337.497 91.6425 337.33 91.1698H333.963V89.555H337.33ZM342.174 83.9032C342.341 83.4305 342.65 83.0211 343.059 82.7315C343.469 82.442 343.958 82.2865 344.459 82.2865C344.96 82.2865 345.449 82.442 345.859 82.7315C346.268 83.0211 346.577 83.4305 346.744 83.9032H350.111V85.518H346.744C346.577 85.9908 346.268 86.4001 345.859 86.6897C345.449 86.9793 344.96 87.1348 344.459 87.1348C343.958 87.1348 343.469 86.9793 343.059 86.6897C342.65 86.4001 342.341 85.9908 342.174 85.518H333.963V83.9032H342.174ZM337.33 78.2515C337.497 77.7787 337.806 77.3694 338.215 77.0798C338.624 76.7902 339.113 76.6347 339.615 76.6347C340.116 76.6347 340.605 76.7902 341.014 77.0798C341.423 77.3694 341.733 77.7787 341.9 78.2515H350.111V79.8663H341.9C341.733 80.339 341.423 80.7484 341.014 81.038C340.605 81.3275 340.116 81.483 339.615 81.483C339.113 81.483 338.624 81.3275 338.215 81.038C337.806 80.7484 337.497 80.339 337.33 79.8663H333.963V78.2515H337.33ZM339.615 79.8663C339.829 79.8663 340.034 79.7812 340.186 79.6298C340.337 79.4784 340.422 79.273 340.422 79.0589C340.422 78.8448 340.337 78.6394 340.186 78.488C340.034 78.3366 339.829 78.2515 339.615 78.2515C339.4 78.2515 339.195 78.3366 339.044 78.488C338.892 78.6394 338.807 78.8448 338.807 79.0589C338.807 79.273 338.892 79.4784 339.044 79.6298C339.195 79.7812 339.4 79.8663 339.615 79.8663V79.8663ZM344.459 85.518C344.673 85.518 344.878 85.433 345.03 85.2815C345.181 85.1301 345.266 84.9248 345.266 84.7106C345.266 84.4965 345.181 84.2911 345.03 84.1397C344.878 83.9883 344.673 83.9032 344.459 83.9032C344.245 83.9032 344.039 83.9883 343.888 84.1397C343.737 84.2911 343.652 84.4965 343.652 84.7106C343.652 84.9248 343.737 85.1301 343.888 85.2815C344.039 85.433 344.245 85.518 344.459 85.518V85.518ZM339.615 91.1698C339.829 91.1698 340.034 91.0847 340.186 90.9333C340.337 90.7819 340.422 90.5765 340.422 90.3624C340.422 90.1482 340.337 89.9429 340.186 89.7915C340.034 89.64 339.829 89.555 339.615 89.555C339.4 89.555 339.195 89.64 339.044 89.7915C338.892 89.9429 338.807 90.1482 338.807 90.3624C338.807 90.5765 338.892 90.7819 339.044 90.9333C339.195 91.0847 339.4 91.1698 339.615 91.1698V91.1698Z" fill="#583CCA"/>
</g>
<g clip-path="url(#clip2_932_4120)">
<path d="M59.4519 88.7476V87.9402H57.0297V85.518H59.4519V87.1328H61.0667V88.7476H60.2593V90.3624H58.6445V91.9771H57.0297V89.555H58.6445V88.7476H59.4519ZM63.4889 91.9771H60.2593V90.3624H61.8741V88.7476H63.4889V91.9771ZM48.9558 77.4441H55.4149V83.9032H48.9558V77.4441ZM50.5706 79.0589V82.2884H53.8002V79.0589H50.5706ZM57.0297 77.4441H63.4889V83.9032H57.0297V77.4441ZM58.6445 79.0589V82.2884H61.8741V79.0589H58.6445ZM48.9558 85.518H55.4149V91.9771H48.9558V85.518ZM50.5706 87.1328V90.3624H53.8002V87.1328H50.5706ZM61.0667 85.518H63.4889V87.1328H61.0667V85.518ZM51.378 79.8663H52.9928V81.481H51.378V79.8663ZM51.378 87.9402H52.9928V89.555H51.378V87.9402ZM59.4519 79.8663H61.0667V81.481H59.4519V79.8663Z" fill="#A1A1A1"/>
</g>
</g>
</g>
<defs>
<filter id="filter0_d_932_4120" x="0" y="0" width="402.699" height="782.799" filterUnits="userSpaceOnUse" color-interpolation-filters="sRGB">
<feFlood flood-opacity="0" result="BackgroundImageFix"/>
<feColorMatrix in="SourceAlpha" type="matrix" values="0 0 0 0 0 0 0 0 0 0 0 0 0 0 0 0 0 0 127 0" result="hardAlpha"/>
<feOffset dy="4"/>
<feGaussianBlur stdDeviation="4"/>
<feComposite in2="hardAlpha" operator="out"/>
<feColorMatrix type="matrix" values="0 0 0 0 0 0 0 0 0 0 0 0 0 0 0 0 0 0 0.05 0"/>
<feBlend mode="normal" in2="BackgroundImageFix" result="effect1_dropShadow_932_4120"/>
<feBlend mode="normal" in="SourceGraphic" in2="effect1_dropShadow_932_4120" result="shape"/>
</filter>
<filter id="filter1_i_932_4120" x="5.00071" y="2.50035" width="389.698" height="768.298" filterUnits="userSpaceOnUse" color-interpolation-filters="sRGB">
<feFlood flood-opacity="0" result="BackgroundImageFix"/>
<feBlend mode="normal" in="SourceGraphic" in2="BackgroundImageFix" result="shape"/>
<feColorMatrix in="SourceAlpha" type="matrix" values="0 0 0 0 0 0 0 0 0 0 0 0 0 0 0 0 0 0 127 0" result="hardAlpha"/>
<feOffset dx="-2.99929" dy="-1.49965"/>
<feGaussianBlur stdDeviation="6.74841"/>
<feComposite in2="hardAlpha" operator="arithmetic" k2="-1" k3="1"/>
<feColorMatrix type="matrix" values="0 0 0 0 0 0 0 0 0 0 0 0 0 0 0 0 0 0 0.2 0"/>
<feBlend mode="normal" in2="shape" result="effect1_innerShadow_932_4120"/>
</filter>
<filter id="filter2_i_932_4120" x="122.823" y="22.4773" width="151.776" height="14.6976" filterUnits="userSpaceOnUse" color-interpolation-filters="sRGB">
<feFlood flood-opacity="0" result="BackgroundImageFix"/>
<feBlend mode="normal" in="SourceGraphic" in2="BackgroundImageFix" result="shape"/>
<feColorMatrix in="SourceAlpha" type="matrix" values="0 0 0 0 0 0 0 0 0 0 0 0 0 0 0 0 0 0 127 0" result="hardAlpha"/>
<feOffset dy="1.49965"/>
<feGaussianBlur stdDeviation="2.99929"/>
<feComposite in2="hardAlpha" operator="arithmetic" k2="-1" k3="1"/>
<feColorMatrix type="matrix" values="0 0 0 0 0 0 0 0 0 0 0 0 0 0 0 0 0 0 0.05 0"/>
<feBlend mode="normal" in2="shape" result="effect1_innerShadow_932_4120"/>
</filter>
<linearGradient id="paint0_linear_932_4120" x1="266.857" y1="249.591" x2="-76.3199" y2="589.601" gradientUnits="userSpaceOnUse">
<stop/>
<stop offset="0.461814" stop-color="white" stop-opacity="0"/>
</linearGradient>
<linearGradient id="paint1_linear_932_4120" x1="164.411" y1="84.711" x2="186.254" y2="84.711" gradientUnits="userSpaceOnUse">
<stop stop-color="#371E9D"/>
<stop offset="1" stop-color="#291976"/>
</linearGradient>
<clipPath id="clip0_932_4120">
<rect width="68.6708" height="25.8365" fill="white" transform="translate(164.411 71.7912)"/>
</clipPath>
<clipPath id="clip1_932_4120">
<rect width="19.3774" height="19.3774" fill="white" transform="translate(332.348 75.0219)"/>
</clipPath>
<clipPath id="clip2_932_4120">
<rect width="19.3774" height="19.3774" fill="white" transform="translate(46.5337 75.0219)"/>
</clipPath>
</defs>
</svg>
